<svg width="16" height="17" viewBox="0 0 16 17" fill="none" xmlns="http://www.w3.org/2000/svg">
<path d="M8 4.20703C7.27344 4.20703 6.59375 4.39453 5.96094 4.76953C5.35156 5.12109 4.85938 5.61328 4.48438 6.24609C4.13281 6.85547 3.95703 7.52344 3.95703 8.25C3.95703 8.97656 4.13281 9.65625 4.48438 10.2891C4.85938 10.8984 5.35156 11.3906 5.96094 11.7656C6.59375 12.1172 7.27344 12.293 8 12.293C8.72656 12.293 9.39453 12.1172 10.0039 11.7656C10.6367 11.3906 11.1289 10.8984 11.4805 10.2891C11.8555 9.65625 12.043 8.97656 12.043 8.25C12.043 7.52344 11.8555 6.85547 11.4805 6.24609C11.1289 5.61328 10.6367 5.12109 10.0039 4.76953C9.39453 4.39453 8.72656 4.20703 8 4.20703ZM8 10.8867C7.27344 10.8867 6.65234 10.6289 6.13672 10.1133C5.62109 9.59766 5.36328 8.97656 5.36328 8.25C5.36328 7.52344 5.62109 6.90234 6.13672 6.38672C6.65234 5.87109 7.27344 5.61328 8 5.61328C8.72656 5.61328 9.34766 5.87109 9.86328 6.38672C10.3789 6.90234 10.6367 7.52344 10.6367 8.25C10.6367 8.97656 10.3789 9.59766 9.86328 10.1133C9.34766 10.6289 8.72656 10.8867 8 10.8867ZM13.168 4.03125C13.1445 4.28906 13.0391 4.51172 12.8516 4.69922C12.6875 4.88672 12.4766 4.98047 12.2188 4.98047C11.9609 4.98047 11.7383 4.88672 11.5508 4.69922C11.3633 4.51172 11.2695 4.28906 11.2695 4.03125C11.2695 3.77344 11.3633 3.55078 11.5508 3.36328C11.7383 3.17578 11.9609 3.08203 12.2188 3.08203C12.4766 3.08203 12.6992 3.17578 12.8867 3.36328C13.0742 3.55078 13.168 3.77344 13.168 4.03125ZM15.8398 4.98047C15.793 4.30078 15.6875 3.71484 15.5234 3.22266C15.3125 2.63672 14.9844 2.13281 14.5391 1.71094C14.1172 1.26562 13.6133 0.9375 13.0273 0.726562C12.5352 0.5625 11.9492 0.46875 11.2695 0.445312C10.6133 0.398438 9.52344 0.375 8 0.375C6.47656 0.375 5.375 0.398438 4.69531 0.445312C4.03906 0.46875 3.46484 0.5625 2.97266 0.726562C2.38672 0.9375 1.87109 1.26562 1.42578 1.71094C1.00391 2.13281 0.6875 2.63672 0.476562 3.22266C0.3125 3.71484 0.207031 4.30078 0.160156 4.98047C0.136719 5.63672 0.125 6.72656 0.125 8.25C0.125 9.77344 0.136719 10.875 0.160156 11.5547C0.207031 12.2109 0.3125 12.7852 0.476562 13.2773C0.6875 13.8633 1.00391 14.3789 1.42578 14.8242C1.87109 15.2461 2.38672 15.5508 2.97266 15.7383C3.46484 15.9258 4.03906 16.0312 4.69531 16.0547C5.375 16.1016 6.47656 16.125 8 16.125C9.52344 16.125 10.6133 16.1016 11.2695 16.0547C11.9492 16.0312 12.5352 15.9375 13.0273 15.7734C13.6133 15.5625 14.1172 15.2461 14.5391 14.8242C14.9844 14.3789 15.3125 13.8633 15.5234 13.2773C15.6875 12.7852 15.7812 12.2109 15.8047 11.5547C15.8516 10.875 15.875 9.77344 15.875 8.25C15.875 6.72656 15.8633 5.63672 15.8398 4.98047ZM14.1523 12.8906C13.8711 13.5938 13.3672 14.0977 12.6406 14.4023C12.2656 14.543 11.6328 14.6367 10.7422 14.6836C10.25 14.707 9.52344 14.7188 8.5625 14.7188H7.4375C6.5 14.7188 5.77344 14.707 5.25781 14.6836C4.39062 14.6367 3.75781 14.543 3.35938 14.4023C2.65625 14.1211 2.15234 13.6172 1.84766 12.8906C1.70703 12.4922 1.61328 11.8594 1.56641 10.9922C1.54297 10.4766 1.53125 9.75 1.53125 8.8125V7.6875C1.53125 6.75 1.54297 6.02344 1.56641 5.50781C1.61328 4.61719 1.70703 3.98438 1.84766 3.60938C2.12891 2.88281 2.63281 2.37891 3.35938 2.09766C3.75781 1.95703 4.39062 1.86328 5.25781 1.81641C5.77344 1.79297 6.5 1.78125 7.4375 1.78125H8.5625C9.5 1.78125 10.2266 1.79297 10.7422 1.81641C11.6328 1.86328 12.2656 1.95703 12.6406 2.09766C13.3672 2.37891 13.8711 2.88281 14.1523 3.60938C14.293 3.98438 14.3867 4.61719 14.4336 5.50781C14.457 6 14.4688 6.72656 14.4688 7.6875V8.8125C14.4688 9.75 14.457 10.4766 14.4336 10.9922C14.3867 11.8594 14.293 12.4922 14.1523 12.8906Z" fill="white"/>
</svg>
