<svg width="184" height="40" viewBox="0 0 184 40" fill="none" xmlns="http://www.w3.org/2000/svg">
<path fill-rule="evenodd" clip-rule="evenodd" d="M21.4204 29.1681L23.9361 29.1731C23.5373 29.5226 23.237 29.7343 22.8579 30.0346L24.2463 29.4488C23.9066 29.9755 22.5429 30.6451 22.0604 31.1029C22.7841 31.0143 24.133 30.3743 24.7041 30.0641C25.1866 29.8032 25.9398 29.3552 26.3632 29.0352C26.4666 28.9614 26.5946 28.8383 26.7866 28.6512L27.4217 28.0161L27.594 27.8389C28.9233 26.3964 29.903 24.4813 30.1836 22.256C30.4445 20.203 30.0605 18.4258 29.3073 16.7814C28.7707 15.6048 28.234 15.0091 27.5054 14.118L27.0968 13.7045C26.8999 13.5075 26.7325 13.2712 26.4666 13.1137C26.6045 13.4386 26.8112 13.7783 26.9688 14.118C27.8353 16.0085 28.5245 17.9876 28.6623 20.1144C28.7116 20.8628 28.687 22.2954 28.4654 22.9797L27.9239 22.9846L27.9042 22.7483C27.6531 22.7483 27.722 22.7631 27.722 22.4874C27.722 21.5175 27.7762 19.9913 27.6925 19.0559C27.6826 18.923 27.7516 18.7212 27.7122 18.5735C27.6679 18.4209 27.6876 18.5292 27.5694 18.4307C27.5645 18.3175 27.6088 18.027 27.5891 17.8892C27.6039 17.8842 27.6137 17.8695 27.6137 17.8547C27.6137 17.835 27.5989 17.8202 27.5793 17.8202C27.5596 17.8202 27.5448 17.835 27.5448 17.8547C27.5448 17.8695 27.5546 17.8842 27.5694 17.8892C27.5448 18.0073 27.4956 18.0221 27.466 17.9778C27.466 17.9433 27.4759 17.8055 27.4759 17.7365C27.4906 17.7316 27.5054 17.7168 27.5054 17.7021C27.5054 17.6824 27.4906 17.6676 27.4709 17.6676C27.4513 17.6676 27.4365 17.6824 27.4365 17.7021C27.4365 17.7168 27.4463 17.7316 27.466 17.7365C27.4365 17.8892 27.402 17.9482 27.3085 17.9285C27.3134 17.8104 27.3085 17.7513 27.3085 17.6479C27.3282 17.6479 27.3429 17.6332 27.3429 17.6135C27.3429 17.5938 27.3282 17.579 27.3085 17.579C27.2888 17.579 27.274 17.5938 27.274 17.6135C27.274 17.6282 27.2888 17.643 27.3036 17.6479C27.2494 17.8744 27.1903 17.899 27.1214 17.8596C27.0082 17.7759 27.0328 17.6627 27.018 17.5298C27.0328 17.5248 27.0476 17.515 27.0476 17.4953C27.0476 17.4756 27.0328 17.4608 27.0131 17.4608C26.9934 17.4608 26.9786 17.4756 26.9786 17.4953C26.9786 17.5101 26.9885 17.5248 27.0032 17.5298C26.9639 17.6725 26.9885 17.8301 26.7719 17.8005C26.6586 17.7513 26.6734 17.6282 26.6635 17.5002C26.6783 17.4953 26.6931 17.4805 26.6931 17.4658C26.6931 17.4461 26.6783 17.4313 26.6586 17.4313C26.6389 17.4313 26.6242 17.4461 26.6242 17.4658C26.6242 17.4805 26.6389 17.4953 26.6537 17.4953C26.6439 17.6085 26.6586 17.6775 26.6094 17.7612C26.4371 17.9827 26.3731 17.6873 26.3534 17.5544C26.3682 17.5495 26.3829 17.5347 26.3829 17.5199C26.3829 17.5002 26.3682 17.4855 26.3485 17.4855C26.3288 17.4855 26.314 17.5002 26.314 17.5199C26.314 17.5347 26.3288 17.5495 26.3435 17.5544C26.3238 17.6873 26.3042 17.7808 26.2155 17.8645C26.1171 17.8941 26.0826 17.8301 26.058 17.6578C26.0728 17.6578 26.0875 17.643 26.0875 17.6282C26.0875 17.6085 26.0728 17.5938 26.0531 17.5938C26.0334 17.5938 26.0186 17.6085 26.0186 17.6282C26.0186 17.643 26.0334 17.6578 26.0531 17.6627C26.0481 17.7365 26.0383 17.8301 26.0137 17.9285C25.9152 17.9827 25.8808 17.8645 25.8561 17.7316C25.8758 17.7267 25.8857 17.7119 25.8857 17.6972C25.8857 17.6775 25.8709 17.6627 25.8512 17.6627C25.8315 17.6627 25.8168 17.6775 25.8168 17.6972C25.8168 17.7119 25.8266 17.7267 25.8414 17.7316C25.8266 17.8202 25.8266 17.8448 25.8168 17.9827C25.7725 18.0024 25.7577 17.9729 25.7281 17.8202C25.7429 17.8153 25.7577 17.8005 25.7577 17.7858C25.7577 17.7661 25.7429 17.7513 25.7232 17.7513C25.7035 17.7513 25.6888 17.7661 25.6888 17.7858C25.6888 17.8005 25.6986 17.8153 25.7134 17.8202L25.6937 17.9975C25.674 18.0221 25.6395 18.0122 25.6346 17.9285C25.6543 17.9285 25.6691 17.9138 25.6691 17.8941C25.6691 17.8744 25.6543 17.8596 25.6346 17.8596C25.6149 17.8596 25.6001 17.8744 25.6001 17.8941C25.6001 17.9089 25.6051 17.9187 25.6198 17.9236L25.5164 18.155C25.4869 18.2879 25.5164 18.4258 25.5066 18.5636C25.4918 18.8443 25.3441 18.7409 25.3884 19.2529L25.3491 20.8086C25.3491 21.3501 25.3392 21.8818 25.3294 22.4234C25.3097 23.216 25.4032 23.1766 25.0143 23.7723L23.8918 23.7871V23.7822V23.6936V23.1126H23.7933V23.0585H23.8918V22.9945H23.7933L23.8032 21.2714V20.1735C23.8081 20.1686 23.8081 20.1637 23.8081 20.1587V20.0947H23.882V19.8781H23.8081L23.818 18.8639H23.882V18.6473H23.818V18.4849C23.818 18.4652 23.818 18.4455 23.818 18.4209C24.0789 18.3618 24.0493 18.1895 24.0296 17.9729C23.9558 17.9138 23.8721 17.8793 23.7835 17.8744C23.749 16.747 23.8524 17.0276 23.8672 16.9094C23.882 16.7716 23.6555 16.6978 23.877 16.3088C23.7884 16.2104 23.7983 16.2891 23.7786 16.1217C24.0296 15.851 23.9164 16.1267 23.9558 15.5507C23.8524 15.5162 23.754 15.4965 23.6604 15.4916V14.5069H23.6949V14.438H23.6604V13.3845H23.6949V13.3155H23.6604V12.4244H23.6949V12.3555H23.6604V11.8287H23.6949V11.686H23.5816V11.8287H23.6112V12.3555H23.5816V12.4244H23.6112V13.3155H23.5816V13.3845H23.6112V14.438H23.5816V14.5069H23.6112V15.4916C23.5078 15.4916 23.4093 15.5113 23.3207 15.5507L23.3256 16.0184C23.4487 16.0824 23.4487 16.0282 23.4733 16.1267C23.4832 16.1611 23.4832 16.1365 23.4733 16.1759C23.4586 16.2842 23.4339 16.2005 23.3798 16.3088C23.4192 16.3925 23.6112 16.6091 23.3749 16.8799C23.493 17.1113 23.4684 17.0079 23.4586 17.3279C23.4487 17.5101 23.4487 17.6972 23.429 17.8793C23.3453 17.8842 23.2764 17.9187 23.1976 17.9679C23.1878 18.0516 23.1829 18.1599 23.1976 18.2682C23.2321 18.4307 23.2666 18.3618 23.3995 18.4406C23.3995 18.4947 23.3995 18.5292 23.3995 18.5587V18.6473H23.3207V18.8639H23.3995L23.3946 18.9723C23.3946 18.987 23.3946 19.0067 23.3946 19.0313C23.3946 19.1495 23.3946 19.2676 23.3946 19.3809C23.3946 19.499 23.3946 19.6172 23.3946 19.7353C23.3946 19.8141 23.3946 19.8535 23.3946 19.8781H23.3207V20.0947H23.3847V20.2129C23.3847 20.2277 23.3847 20.2474 23.3847 20.267L23.3798 20.72L23.3601 22.9945H23.2764V23.0585H23.3601V23.1126H23.2764V23.7822H23.2223L23.0352 23.7871L22.5182 22.8025L22.1687 22.7976L22.1588 22.9551C22.1047 22.96 22.0259 22.96 21.9668 22.96L21.701 22.7532C21.6911 22.7483 21.6813 22.7434 21.6715 22.7434L21.6419 22.7631C21.5582 22.832 21.4696 22.9157 21.3859 22.96H21.3071V21.7686C21.3071 21.744 21.3071 21.7194 21.3071 21.6948C21.2973 21.6898 21.2628 21.6652 21.2579 21.6603C21.253 21.6554 21.2481 21.6455 21.2431 21.6406C21.0561 21.4634 21.1004 21.5963 21.0364 21.6258C20.9379 21.6751 20.9625 21.6357 20.8542 21.6554C20.6081 21.7046 20.9231 21.7046 20.6425 21.7341V21.4535C20.416 21.3551 20.4997 21.3649 20.3865 20.9514C20.3274 21.04 20.3028 21.1877 20.2634 21.3009C20.1748 21.5569 20.1207 21.3354 20.1108 21.5618V22.1969V22.8911V22.9846H19.8942V23.1766H19.3723V24.2696H19.3083H18.9096V23.1766V21.0597C18.8997 20.976 18.9096 20.8923 18.9096 20.8037C18.8062 20.7594 18.6732 20.656 18.6043 20.6018C18.3729 20.7347 18.5206 20.6904 18.0874 20.6904C18.0677 20.4738 18.112 20.6461 17.9495 20.5526V20.3015C17.9397 20.2966 17.9298 20.2818 17.9249 20.2867L17.8215 20.2375L17.8166 20.0258H17.5458C17.3243 19.4301 16.4184 19.5384 16.1821 20.0997L15.9852 20.1046V20.3507L15.808 20.3704V24.7324H13.8584V24.0382L13.5925 23.8757L13.5827 23.1028L12.9476 23.0979L12.9378 22.8763L12.1451 22.8517L12.1402 21.5668L12.3814 21.5569C12.4159 21.3846 12.3864 21.4683 12.3224 21.3157C12.3864 21.1975 12.4553 21.2418 12.4504 21.0941C12.4454 20.9612 12.3716 20.9957 12.3224 20.8628C12.3814 20.8135 12.4356 20.7889 12.4848 20.7446L12.5784 20.6117C12.6128 20.5575 12.5734 20.5969 12.6227 20.5526C12.7261 20.7052 12.9131 20.8283 12.9575 20.5427C12.7408 20.4689 12.731 20.4295 12.6473 20.2424C12.8245 20.2867 13.1002 20.7594 13.179 20.3557C12.9624 20.2769 13.0264 20.2818 12.9033 20.1046C12.9279 20.0504 13.1544 19.9569 12.8442 19.7797C12.7064 19.696 12.6768 19.504 12.5784 19.7009C12.6424 19.9077 12.795 19.7353 12.8984 19.9569C12.6719 19.9126 12.539 19.7501 12.3765 19.6812C12.1648 19.5876 11.9433 19.5975 11.7562 19.5138C11.7513 19.3513 11.7168 19.3267 11.8744 19.3267C11.9531 19.3267 12.0664 19.3464 12.1697 19.3464C12.5242 19.3366 12.6128 19.051 12.4553 19.0658C12.3371 19.0756 11.9334 19.1889 11.8497 18.9723C11.7759 18.7852 11.7562 18.5882 11.7562 18.3962C11.8793 18.5538 11.8547 18.4898 11.8153 18.3027L12.5242 18.3322C12.8639 18.3962 12.7359 18.2436 13.0707 18.1304C12.8294 17.9581 12.9033 18.3569 12.5144 18.2485C12.1008 18.1304 12.4799 18.027 12.3076 17.8202C12.2436 17.7513 12.2436 17.7956 12.1747 17.6972C12.1156 17.6233 12.1451 17.6233 12.0713 17.5544L12.2141 17.4805C12.155 17.3722 12.0811 17.4411 12.027 17.2048C11.9925 17.0473 12.1697 17.0178 12.0073 16.9193L11.9137 17.1015C11.9088 17.1064 11.9088 17.1162 11.9039 17.1261L11.8891 17.1704C11.8891 17.1753 11.8842 17.1851 11.8842 17.1901C11.7414 17.1261 11.7513 17.1753 11.7562 16.8504C11.7562 16.6879 11.7611 16.555 11.7267 16.4024C11.6971 16.2793 11.8005 16.3974 11.835 16.3531C11.835 16.3531 11.8399 16.3433 11.8448 16.3433C11.7907 16.2596 11.7365 16.1217 11.638 16.2202C11.6331 16.2251 11.6282 16.2301 11.6282 16.2399L11.6036 16.3433C11.574 16.5304 11.579 16.4565 11.5445 16.5107L11.5051 16.5648L11.3722 16.9094C11.3279 17.0571 11.3771 17.067 11.3722 17.195L11.3328 17.3821C11.3279 17.3821 11.323 17.3919 11.323 17.3968C11.2885 17.4707 11.2294 17.4608 11.2294 17.6036C11.2343 17.6873 11.2934 17.8941 11.2639 18.0024C11.2196 18.1649 11.3033 18.0713 11.1753 18.1205C11.1063 17.9384 11.2245 17.8104 11.1063 17.6528L11.0965 17.6085C11.0916 17.5642 11.0325 17.5642 11.0226 17.6085L11.0128 17.6528C10.998 17.6922 10.9734 17.7021 10.9636 17.771C10.9488 17.8842 10.9882 17.8941 10.9931 18.0221C10.9931 18.1402 10.9291 18.1353 10.998 18.2387C11.0571 18.3224 11.1162 18.2485 11.195 18.2978C11.2491 18.3322 11.2787 18.6473 11.3279 18.7655C11.3919 18.9132 11.4903 19.0953 11.3377 19.2184C11.2294 19.1938 11.2343 19.1101 11.1506 19.0067C11.0473 18.8836 11.0719 18.8984 10.9931 18.7556C10.8553 18.7458 10.9193 18.7852 10.8306 18.8246C10.7322 18.8639 10.6189 19.0166 10.6485 19.1298C10.7076 19.1495 10.8356 19.2332 10.8848 19.2233C10.7568 19.883 10.5796 19.4892 10.3334 19.6615C10.2596 19.7452 10.3285 19.8092 10.4614 19.824C10.2891 19.9027 10.3432 19.7698 10.1463 19.8633L10.1365 19.9864C10.2596 20.075 10.5353 20.0504 10.7125 20.0504C10.8011 20.0455 10.9242 20.0258 10.9882 20.0357C11.067 20.0406 11.1457 20.0997 11.1851 20.144C11.131 20.2326 11.1408 20.1932 11.0473 20.2572L10.614 20.6461C10.4614 20.784 10.5008 20.8677 10.614 21.0006C10.7223 21.1237 10.614 20.9957 10.6485 21.1828C10.6682 21.2861 10.7026 21.2911 10.7765 21.3354L10.7273 21.5471L11.0079 21.5618C11.0079 21.9852 11.003 22.4086 10.9931 22.8369C10.9882 23.3933 10.9537 23.4277 10.7371 23.8757H10.6091H9.22077V24.1317V25.1656C8.70384 25.1607 8.77276 25.2838 8.26075 24.5896C7.06934 22.9699 6.40964 21.1384 6.06994 19.1101C5.90748 18.1452 5.87794 17.2787 5.81394 16.2891C5.78932 16.3925 5.7204 16.5993 5.68594 16.7322C4.80469 20.2277 5.59239 23.8954 7.95551 26.5736C8.07367 26.7065 8.08352 26.7509 8.24106 26.8887C8.56106 27.1644 8.73337 27.4007 9.19615 27.77C9.65893 28.1392 10.1512 28.4641 10.6829 28.7595C10.742 28.794 10.8405 28.8383 10.9488 28.8924L11.5987 29.1927C13.0608 29.7737 14.9858 30.2512 16.4972 30.4285C17.9938 30.5269 19.7465 29.9854 21.2185 29.1927H21.3662H21.3958C21.4007 29.1878 21.4105 29.1829 21.4204 29.1681ZM23.7096 11.6614C23.7293 11.5727 23.749 11.6564 23.6112 11.5974V11.6614H23.7096ZM12.1451 18.0172C12.1599 18.1796 11.8104 18.2338 11.8005 18.0418L11.835 17.7316C11.8448 17.6233 11.9187 17.6085 11.963 17.6922L12.1451 18.0172Z" fill="#008DD2"/>
<path fill-rule="evenodd" clip-rule="evenodd" d="M9.94473 3.93691C10.8161 4.62123 12.6722 3.50367 14.2328 3.96645C15.4291 4.32092 13.8242 5.64033 13.3713 5.98495C13.1694 6.14249 12.8002 6.34434 12.8789 6.71358C13.1202 7.21082 13.7011 6.66927 13.9768 6.49204C14.3116 6.27049 14.7005 6.06372 15.1042 5.87172C17.7381 4.62616 20.3031 4.95601 22.5086 6.72835C22.9862 7.10743 23.5474 6.65942 23.0502 6.23111C19.412 3.06551 22.5333 3.28213 25.5413 3.94184C25.6989 3.9763 25.945 4.05015 26.0976 4.06491C26.329 4.09445 26.5456 4.07476 26.6392 3.86799C26.8066 3.39044 25.8121 3.03105 25.4478 2.85874C24.9112 2.60766 24.3745 2.39596 23.769 2.20888C22.7302 1.87903 20.9579 1.52456 19.7714 1.58364C19.6188 1.79534 19.5941 2.12519 19.2101 2.53381C18.644 3.13936 17.7923 3.18859 17.1424 2.50919C16.7732 2.12519 16.7584 1.80518 16.6058 1.5541C15.5473 1.51964 13.7011 1.92334 12.7608 2.2138C12.2143 2.38119 11.6383 2.58797 11.1312 2.82428C10.634 3.05567 9.91519 3.27229 9.94473 3.93691Z" fill="#008DD2"/>
<path fill-rule="evenodd" clip-rule="evenodd" d="M1.81172 26.741C2.4222 26.6967 3.3576 26.4309 3.92376 27.3564C4.43085 28.1786 3.76622 28.9909 3.52006 29.4045C3.66283 29.7737 4.33239 30.5959 4.59331 30.911C4.99209 31.3934 5.41056 31.8808 5.86349 32.2698C6.6955 32.9787 7.16321 33.3725 8.12322 33.9486C8.43338 34.1356 8.65492 34.3326 9.06847 34.1258C9.1817 33.6679 8.85185 33.4365 8.65492 33.2249C8.40384 32.959 8.18722 32.7276 7.95091 32.4667C6.48381 30.847 4.91332 28.6512 8.61062 29.626C9.07832 29.7491 9.34909 29.9608 9.70356 29.7048C9.85125 28.6512 7.74906 29.242 5.82903 26.421C5.03148 25.2444 4.70162 23.6887 4.68685 22.2068C4.67701 21.5816 4.94778 20.7889 4.18961 20.8923C3.92869 21.2271 3.97792 21.36 3.91884 21.8179C3.52499 24.7324 2.56989 23.8019 1.60988 21.7391C1.39326 21.2763 1.09787 20.3705 0.836938 20.08C0.620319 19.8437 0.324929 19.6615 0.113233 20.0652C-0.059078 20.3951 0.00492317 20.7594 0.0492317 21.1631C0.123079 21.8671 0.251081 22.5613 0.428315 23.2062C0.610473 23.8758 0.802476 24.4321 1.03386 25.0327L1.81172 26.741Z" fill="#008DD2"/>
<path fill-rule="evenodd" clip-rule="evenodd" d="M26.4815 29.6949C26.8162 30.1134 27.4267 29.5571 28.6378 29.37C31.2323 28.9712 29.0317 31.5952 28.4212 32.3633C28.1996 32.639 27.9732 32.9146 27.7467 33.151C27.535 33.3676 27.1805 33.6384 27.2741 34.111C27.5646 34.5442 28.7018 33.6236 28.9529 33.4316C30.5234 32.2156 31.572 31.0734 32.6551 29.2567C32.5813 29.0598 31.6656 28.1539 32.1825 27.1792C32.6846 26.229 33.7924 26.485 34.265 26.4899C34.4225 26.0222 34.6884 25.5348 34.8804 25.013C35.0724 24.5059 35.2496 23.9594 35.3875 23.4376C35.5844 22.7139 36.0767 20.4147 35.7173 19.7796C35.3973 19.2036 34.9148 19.7403 34.7031 20.3655C34.5259 20.8972 34.3487 21.36 34.1173 21.8671C33.2262 23.856 32.4779 24.1219 32.0249 21.9163C31.9757 21.6554 31.9363 21.2418 31.8576 21.0154C31.7492 20.72 31.4243 20.5723 31.2274 20.8726C31.0108 21.2024 31.6212 23.1372 30.6661 25.4659C30.228 26.5293 29.6274 27.2579 28.8889 27.8733C27.4218 29.1041 26.3879 28.9958 26.4815 29.6949Z" fill="#008DD2"/>
<path fill-rule="evenodd" clip-rule="evenodd" d="M27.4419 4.39475C27.3287 4.81814 27.501 5.10861 27.7078 5.36953C27.9096 5.62061 28.0967 5.83723 28.2887 6.09816C28.8204 6.81202 30.7798 9.38684 28.3133 8.75175C27.9638 8.66313 27.6684 8.55482 27.3385 8.41205C26.9742 8.25943 26.6739 8.06743 26.3982 8.39728C26.3342 8.71236 26.4081 8.79606 26.6444 8.91421C32.6851 11.9223 30.9275 16.4467 31.1441 17.0571C31.218 17.2491 31.3952 17.4313 31.6365 17.2984C31.8383 17.1851 31.9515 16.3876 32.0352 16.0873C32.2223 15.4276 32.7048 13.926 33.5023 14.6497C34.1227 15.2208 34.7282 17.0227 35.0137 17.9531C35.1467 18.3913 35.191 18.9427 35.6735 18.9575C36.1559 18.8492 35.9393 17.4461 35.9048 17.0621C35.7768 15.7968 35.4716 14.5906 35.0137 13.4288C34.7922 12.8675 34.5116 12.3703 34.3048 11.8533C33.8913 11.809 32.8082 12.0946 32.2666 11.169C31.7251 10.2287 32.5226 9.43115 32.7589 9.07668C32.4537 8.38743 31.0752 6.7874 30.5238 6.25078C29.6967 5.43846 29.3866 5.18738 28.4413 4.53752C28.1459 4.33567 27.821 4.17813 27.4419 4.39475Z" fill="#E5097F"/>
<path fill-rule="evenodd" clip-rule="evenodd" d="M17.8219 33.1953C14.5972 33.1953 13.4501 31.0094 13.0021 31.7873C12.8151 32.1073 13.2434 32.3239 13.6421 32.6636C13.9228 32.9048 14.2132 33.2101 14.4594 33.4956C16.1628 35.4944 12.2981 34.8987 11.4316 34.7707C10.9492 34.6969 9.93992 34.3522 9.68392 34.7461C9.44268 35.1941 10.447 35.5486 10.8359 35.711C12.6083 36.4446 14.676 36.8729 16.6453 36.7843C17.4182 34.5196 19.2398 35.0809 19.7666 36.6957C21.5783 36.5578 23.582 35.9916 25.0147 35.2827C25.2953 35.1399 25.8861 34.8642 26.0781 34.6919C26.5015 34.3079 26.4965 33.855 25.7531 33.8107C25.2953 33.7861 19.7223 35.3418 22.2281 32.6882C22.3808 32.5307 22.494 32.4371 22.6565 32.2943C22.814 32.1516 22.9715 32.0334 23.1045 31.9103C23.5919 31.4623 23.1685 30.9306 22.6614 31.3245C21.5291 32.191 19.7813 33.1953 17.8219 33.1953Z" fill="#E5097F"/>
<path fill-rule="evenodd" clip-rule="evenodd" d="M3.51514 9.02744C3.73668 9.39668 4.50962 10.1401 4.02715 11.0853C3.54468 12.0306 2.44189 11.7943 1.97911 11.8041C1.60003 12.9118 1.36864 13.1284 0.989552 14.6103C0.699086 15.7476 0.536621 16.8356 0.536621 18.0713C0.536621 18.4258 0.792626 18.9378 1.16186 18.731C1.6591 18.4504 1.95449 16.8897 2.52558 15.7623C2.82589 15.1716 3.45114 14.2165 3.97791 15.2848C4.26346 15.851 4.38654 17.1851 4.68685 17.4854C5.21855 17.5691 5.20871 17.2245 5.15947 16.7716C4.81978 13.7931 5.67148 11.3512 8.0543 9.71176C8.33492 9.51976 8.63031 9.34253 8.97493 9.17514C9.34909 8.98806 9.74294 8.94867 9.67894 8.41697C9.47217 7.9985 8.56631 8.60405 7.56198 8.79113C4.95762 9.26376 7.02043 6.61509 7.67521 5.788L8.65 4.62121C8.78785 4.4489 8.82723 4.28151 8.77308 4.01074C8.38415 3.7892 8.17738 3.99105 7.88199 4.1929C6.79397 4.92645 6.6315 5.14307 5.74041 5.99477C5.14963 6.56094 3.81545 8.24958 3.51514 9.02744Z" fill="#E5097F"/>
<path fill-rule="evenodd" clip-rule="evenodd" d="M16.6206 9.34748C17.2803 9.42133 18.4914 9.33763 19.7616 9.47548C24.2171 9.9481 27.6239 11.8977 29.5193 16.0085C30.2775 17.6578 30.5532 19.2381 30.8387 21.2172C31.0996 20.5871 31.1193 18.7458 31.0553 17.9778C30.8239 15.2405 29.4553 12.4491 27.5106 10.8638C27.1709 10.5881 26.9051 10.3567 26.5211 10.1056C25.3592 9.33763 24.1727 8.81578 22.7056 8.56962C20.7068 8.22992 18.2354 8.55977 16.6206 9.34748Z" fill="#E5097F"/>
<path fill-rule="evenodd" clip-rule="evenodd" d="M8.82227 15.2208L8.90596 15.142C8.91088 15.1322 8.92073 15.1223 8.92565 15.1125L9.17181 14.7186C12.6082 9.36223 17.428 6.28525 24.1136 8.71729C24.537 8.87483 24.9062 9.0176 25.305 9.18499C25.6447 9.32284 26.1764 9.633 26.4718 9.71177C25.5463 8.57944 23.4047 7.45204 21.8736 6.97449C17.876 5.72893 13.6519 7.0828 11.1165 10.1007C10.6045 10.7063 10.0875 11.5186 9.69367 12.3752C9.39335 13.0398 8.89119 14.3789 8.82227 15.2208Z" fill="#008DD2"/>
<path fill-rule="evenodd" clip-rule="evenodd" d="M16.4976 30.4285C14.5086 30.5319 12.3916 29.9362 10.575 29.2075C10.3682 29.1288 10.0679 28.9712 9.8562 28.9269C11.2298 30.3595 13.8981 31.482 16.0594 31.7134C17.4822 31.871 18.8754 31.7183 20.1456 31.3442C22.046 30.7829 22.494 30.1675 23.1881 29.8574C23.3506 29.6063 24.7192 28.8186 25.8516 26.8296C26.3783 25.909 27.2251 23.8954 27.2448 22.6056C26.0731 24.7324 24.9408 26.2585 23.2029 27.829C21.6176 29.2617 18.7671 30.5762 16.4976 30.4285Z" fill="#E5097F"/>
<path fill-rule="evenodd" clip-rule="evenodd" d="M2.03321 27.253C1.53597 27.322 1.44736 27.258 1.2652 27.6813C0.743344 28.8875 2.05783 29.818 2.77169 29.5275C2.87507 29.4832 4.99696 26.8444 2.03321 27.253Z" fill="#008DD2"/>
<path fill-rule="evenodd" clip-rule="evenodd" d="M33.438 9.07668C33.3493 9.15053 33.0244 9.60346 32.9358 9.74131C32.8029 9.94808 32.5961 10.2976 32.5764 10.5881C32.5272 11.366 33.561 11.361 34.2158 11.3266C34.7475 11.3019 34.7771 11.3019 34.9592 10.8933C35.23 10.2779 34.9838 9.5493 34.4226 9.2096C34.2552 9.10622 33.694 8.87483 33.438 9.07668Z" fill="#E5097F"/>
<path fill-rule="evenodd" clip-rule="evenodd" d="M17.9843 0.0229879C17.5659 0.101759 17.3689 0.2593 17.1671 0.490689C16.8766 0.825464 16.916 0.968236 17.108 1.37686C17.3099 1.81994 17.7726 2.84889 18.4422 2.49934C18.7228 2.34672 19.4022 1.42609 19.4613 0.987928C19.5105 0.598998 18.8163 -0.139477 17.9843 0.0229879Z" fill="#008DD2"/>
<path fill-rule="evenodd" clip-rule="evenodd" d="M33.3098 27.0118C32.404 27.125 32.3351 27.6567 32.7437 28.3952C32.8963 28.6709 33.0292 28.8776 33.1966 29.109C33.3098 29.2617 33.3443 29.3257 33.5806 29.3404C35.1265 29.4241 35.3726 27.1841 34.3831 27.0462C34.0335 26.997 33.6594 26.9675 33.3098 27.0118Z" fill="#008DD2"/>
<path fill-rule="evenodd" clip-rule="evenodd" d="M2.32866 8.97329C1.70834 9.11113 1.22095 9.5493 1.22095 10.2927C1.22095 10.6078 1.36864 11.0115 1.54095 11.1592C1.73788 11.3364 2.34343 11.3019 2.64867 11.2872C3.53484 11.2527 3.94346 10.8884 3.52991 10.0416C3.39206 9.75115 3.25914 9.55422 3.08683 9.32283C2.87513 9.03729 2.8259 8.86498 2.32866 8.97329Z" fill="#E5097F"/>
<path fill-rule="evenodd" clip-rule="evenodd" d="M18.0729 35.7603C17.5608 35.903 17.1867 36.7055 16.9947 37.2372C16.8027 37.7591 17.6199 38.3991 18.3978 38.2908C18.831 38.2317 19.7172 37.7443 19.3381 36.9861C19.1116 36.5283 18.6735 35.5929 18.0729 35.7603Z" fill="#E5097F"/>
<path d="M58.3721 16.7838C52.9642 22.4226 45.2473 21.7421 45.6727 13.7092C46.1223 5.25104 53.9243 1.92124 56.2332 3.13649C57.6551 3.8778 57.4242 7.29267 54.1673 8.1312C53.5475 8.28918 55.018 9.24923 56.3791 9.24923C58.6273 9.24923 60.1828 7.35343 60.4623 5.70068C61.0578 2.33442 58.0683 -0.059632 53.1708 0.00113085C46.6327 0.0375885 41.2734 5.5184 40.1919 11.7162C39.0981 18.1206 42.7682 23.7351 48.966 23.6136C55.419 23.4799 58.287 18.7161 58.7488 17.5008C59.0891 16.7595 58.9919 16.1397 58.3721 16.7838ZM74.6808 3.97502C71.2903 3.19726 65.9796 3.27017 62.3581 3.97502C62.3581 3.97502 62.2609 3.97502 62.2366 4.07224C62.1394 4.63126 60.1464 16.0304 60.1464 16.0304C60.1221 16.1519 60.2193 16.1519 60.2193 16.1519H64.8859C64.8859 16.1519 65.0074 16.1519 65.0317 16.0304C65.0317 16.0304 66.1376 9.7961 66.7695 6.21109C67.7174 6.21109 68.7382 6.21109 69.4917 6.21109C68.8841 9.67457 67.7417 16.0304 67.7417 16.0304C67.7174 16.1519 67.8146 16.1519 67.8146 16.1519H72.5055C72.5055 16.1519 72.6028 16.1519 72.6271 16.0304C72.6271 16.0304 74.3892 6.01665 74.7295 4.07224C74.7538 3.95071 74.6808 3.97502 74.6808 3.97502ZM153.636 18.7282C155.058 18.4366 157.756 16.9297 158.169 14.9123C158.193 14.8759 158.205 14.8637 158.193 14.803C158.193 14.7422 158.108 14.6328 157.95 14.5478C155.532 13.2596 155.909 11.0478 155.167 9.77179C154.742 9.05479 154.098 8.67806 152.98 8.82389C153.199 7.97321 153.831 6.67289 154.754 6.78226C155.556 6.89164 155.179 7.77877 155.119 8.14335C155.058 8.50793 155.653 8.70237 156.261 8.70237C157.78 8.70237 159.068 7.75447 159.36 6.13818C159.652 4.53404 158.606 3.416 156.832 3.416C153.612 3.416 151.473 7.24406 150.914 9.06694C150.817 9.09125 150.768 9.11555 150.695 9.13986C150.841 8.28918 150.987 7.56003 151.06 7.09823C151.449 4.8257 150.282 3.416 148.35 3.416C146.989 3.416 145.506 4.3639 145.093 5.14167C144.753 5.78575 146.551 4.97153 145.871 8.82389C145.579 10.5009 144.412 16.0304 144.412 16.0304C144.388 16.1276 144.485 16.1519 144.485 16.1519H149.371C149.371 16.1519 149.468 16.1276 149.492 16.0061C149.492 16.0061 149.942 13.4054 150.379 10.9627C151.716 11.0843 150.002 15.4835 153.065 16.48C153.66 16.7717 153.539 17.3428 152.992 17.9991C152.834 18.3758 153.247 18.8133 153.636 18.7282ZM88.1216 10.1121C88.7535 6.4663 86.3716 3.51322 82.4706 3.51322C78.5697 3.51322 75.1669 6.4663 74.535 10.1121C73.9031 13.77 76.2607 16.7109 80.1616 16.7109C84.1477 16.7109 87.4653 13.77 88.1216 10.1121ZM79.3231 10.1121C79.6755 8.02182 80.5748 6.2597 82.0088 6.2597C83.4185 6.2597 83.7102 8.02182 83.3456 10.1121C82.9567 12.2509 82.0818 13.9644 80.6234 13.9644C79.2259 13.9644 78.9585 12.1537 79.3231 10.1121ZM98.9495 3.416C97.2482 3.416 95.7412 4.58265 94.6232 6.18679C94.5989 4.46112 93.4809 3.416 91.816 3.416C90.4549 3.416 88.9723 4.3639 88.5834 5.14167C88.2431 5.7979 89.8472 4.97153 89.1667 8.82389C88.875 10.5009 87.0035 21.3653 87.0035 21.3653C86.9549 21.4626 87.0765 21.4869 87.0765 21.4869H91.9132C91.9132 21.4869 92.0347 21.4626 92.059 21.341C92.059 21.341 92.6423 17.9748 93.2864 14.3047C93.7968 15.6658 94.8176 16.6137 96.4947 16.6137C99.6787 16.6137 101.927 13.3568 102.51 10.0391C103.094 6.78226 102 3.416 98.9495 3.416ZM95.1336 13.3325C93.9427 13.3325 93.5781 11.862 93.894 10.0391C94.21 8.21626 95.1093 6.75796 96.3003 6.75796C97.4912 6.75796 97.8558 8.21626 97.5398 10.0391C97.2239 11.862 96.3246 13.3325 95.1336 13.3325ZM115.501 4.8257C115.574 4.41251 115.55 4.12085 115.55 4.12085C115.55 3.99932 115.526 3.9021 115.355 3.8778C114.529 3.75627 108.611 3.02712 103.665 3.92641C103.64 3.95071 103.616 3.95071 103.616 4.02363L103.567 4.19377L103.154 6.90379C103.13 7.00101 103.203 7.00101 103.203 7.00101L106.35 7.02531L105.305 12.9436C104.892 15.2283 106.083 16.638 108.027 16.638C109.389 16.638 110.883 15.6901 111.297 14.9123C111.612 14.2561 109.826 15.0825 110.494 11.2301L111.199 7.21975H111.224C112.512 7.4142 115.112 7.21975 115.501 4.8257ZM143.331 11.2787L144.011 7.48711C144.424 5.06875 143.185 3.48892 141.362 3.48892C139.904 3.48892 137.801 4.46112 136.367 7.26836C135.687 6.83087 134.86 6.58782 133.961 6.58782C133.281 6.58782 132.612 6.66074 132.004 6.75796C132.418 4.41251 132.393 4.12085 132.393 4.12085C132.393 3.99932 132.369 3.9021 132.199 3.8778C131.373 3.75627 121.42 3.02712 116.498 3.92641C116.449 3.95071 116.425 3.95071 116.425 4.02363L115.963 6.90379C115.939 7.00101 116.012 7.00101 116.012 7.00101L119.171 7.02531L118.126 12.9436C117.713 15.2283 118.904 16.638 120.836 16.638C122.197 16.638 123.704 15.6901 124.117 14.9123C124.433 14.2561 122.659 15.0825 123.34 11.2301L124.069 7.02531H127.071L126.293 11.4245C125.916 13.6485 126.682 16.6866 131.178 16.6866C134.399 16.6866 137.412 14.4991 137.947 11.3759C138.19 10.0635 137.898 8.94542 137.291 8.11904C138.069 6.4906 139.308 6.32046 138.968 8.28918L138.142 12.9922C137.728 15.2769 139.114 16.6866 141.046 16.6866C142.407 16.6866 143.89 15.7387 144.279 14.9609C144.643 14.3047 142.65 15.1311 143.331 11.2787ZM131.786 13.8672C130.935 13.8672 130.959 12.8828 131.081 11.9349L131.616 8.96972C131.737 8.94542 131.932 8.92111 132.102 8.92111C133.159 8.92111 133.645 9.84471 133.378 11.2544C133.159 12.5669 132.782 13.8672 131.786 13.8672Z" fill="#008DD2"/>
<path d="M104.503 36.7505C104.503 36.7505 102.838 24.0389 102.316 21.1709C101.842 18.5338 100.25 17.3671 98.4876 17.3671C97.0779 17.3671 95.2064 18.0963 94.7203 19.0442C94.4287 19.6032 96.5554 18.8133 95.1214 21.3532C91.026 35.0005 78.4237 43.5681 67.3649 31.0023C66.7208 30.261 66.9639 30.662 67.2312 31.3669C70.8284 40.9188 87.9392 44.1514 94.0884 32.6915H99.1074C99.1439 34.9033 99.9702 37.1758 104.406 36.872C104.406 36.872 104.527 36.872 104.503 36.7505ZM182.754 26.7732C183.069 24.9503 183.24 24.0024 183.41 22.9816C183.847 20.5633 182.583 18.9834 180.76 18.9834C179.314 18.9834 177.2 19.9556 175.79 22.775C175.11 22.3375 174.283 22.0945 173.384 22.0945C172.715 22.0945 172.011 22.1674 171.427 22.2646C171.695 20.7577 171.889 19.591 171.889 19.591C171.913 19.4695 171.816 19.4452 171.816 19.4452H167.125C167.125 19.4452 167.028 19.4695 167.004 19.5667C167.004 19.5424 166.019 25.2663 165.728 26.919C165.339 29.1551 166.117 32.1811 170.601 32.1811C173.821 32.1811 176.811 29.9936 177.37 26.8704C177.613 25.558 177.321 24.4399 176.714 23.6135C177.491 21.9973 178.731 21.8271 178.391 23.7837C178.099 25.4364 177.686 27.6725 177.54 28.4989C177.151 30.7714 178.537 32.1811 180.469 32.1811C181.83 32.1811 183.288 31.2332 183.701 30.4554C184.066 29.7992 182.073 30.6256 182.754 26.7732ZM171.209 29.3739C170.358 29.3739 170.358 28.3774 170.504 27.4295C170.65 26.6274 170.844 25.558 171.038 24.4642C171.16 24.4399 171.354 24.4156 171.525 24.4156C172.594 24.4156 173.044 25.3392 172.813 26.7489C172.594 28.0614 172.205 29.3739 171.209 29.3739ZM165.959 20.3688C166.032 19.9556 166.007 19.664 166.007 19.664C166.007 19.5424 165.983 19.4452 165.813 19.4209C164.986 19.2994 159.068 18.5702 154.122 19.4695C154.098 19.4938 154.073 19.4938 154.073 19.5667L154.025 19.7369L153.612 22.4469C153.587 22.5441 153.66 22.5441 153.66 22.5441L156.808 22.5684L155.775 28.4867C155.362 30.7714 156.54 32.1811 158.485 32.1811C159.846 32.1811 161.353 31.2332 161.766 30.4554C162.082 29.7992 160.283 30.6256 160.964 26.7732L161.669 22.7629H161.693C162.969 22.9573 165.57 22.7629 165.959 20.3688ZM151.862 26.8218C152.153 25.1448 153.296 19.6154 153.296 19.6154C153.32 19.5181 153.223 19.4938 153.223 19.4938H148.374C148.374 19.4938 148.252 19.5181 148.228 19.6397C148.228 19.6397 148.107 20.2959 147.936 21.3046C147.426 19.9556 146.405 19.0077 144.728 19.0077C141.556 19.0077 139.272 22.2525 138.688 25.5823C138.129 28.827 139.223 32.2054 142.285 32.2054C143.975 32.2054 145.482 31.0388 146.6 29.4589C146.6 31.1846 147.718 32.2297 149.395 32.2297C150.744 32.2297 152.226 31.2818 152.615 30.5041C152.98 29.8478 151.181 30.6742 151.862 26.8218ZM144.923 28.8513C143.732 28.8513 143.367 27.4051 143.683 25.5823C143.999 23.7594 144.898 22.2768 146.089 22.2768C147.28 22.2768 147.645 23.7594 147.329 25.5823C147.013 27.4051 146.114 28.8513 144.923 28.8513ZM138.761 19.591C138.786 19.4938 138.713 19.4938 138.713 19.4938C138.713 19.4938 134.617 19.4938 133.28 19.4938C133.183 19.4938 133.135 19.5667 133.135 19.5667L129.951 24.124H129.878L128.504 19.591C128.504 19.591 128.48 19.4938 128.407 19.4938C127.241 19.4938 123.303 19.4938 123.303 19.4938C123.303 19.4938 123.206 19.4938 123.182 19.6154C123.182 19.6154 122.647 24.0024 121.663 26.3843C120.083 30.3096 119.354 29.9207 119.232 30.5041C119.159 31.0145 119.913 32.1568 121.468 32.1568C123.4 32.1568 125.029 30.9415 126.001 27.8183C126.171 27.2107 126.39 26.2871 126.584 25.2663L127.921 31.4763C127.97 31.6221 128.043 31.6707 128.188 31.6707H128.796C129.015 31.6707 129.063 31.6221 129.136 31.4763L133.475 24.3184L132.77 26.9433C132.333 29.4103 131.944 31.5735 131.944 31.5735C131.919 31.695 132.017 31.695 132.017 31.695H136.72C136.72 31.695 136.817 31.695 136.841 31.5735C136.841 31.5735 138.664 20.1501 138.761 19.591ZM120.058 19.591C120.083 19.5181 120.034 19.4938 120.01 19.4938H120.034C116.291 18.7161 112.779 18.7647 109.401 19.4938C109.376 19.4938 109.303 19.5181 109.279 19.6154C109.279 19.6154 108.125 24.4399 107.25 26.3843C105.475 30.2853 104.503 30.0423 104.43 30.5041C104.333 31.0145 105.062 32.2054 106.618 32.2054C108.586 32.2054 110.276 31.136 111.394 28.0249C111.904 26.6517 112.609 23.7351 113.095 21.7177C113.703 21.7177 114.31 21.7177 114.821 21.7177C114.189 25.3149 113.071 31.5492 113.071 31.5492C113.046 31.6707 113.144 31.6707 113.144 31.6707H117.822C117.822 31.6707 117.92 31.6707 117.944 31.5492C117.944 31.5492 119.961 20.1501 120.058 19.591ZM95.328 29.4225C96.1786 27.2107 97.2481 24.1604 98.0015 22.3861L98.8887 29.4225H95.328Z" fill="#E5097F"/>
<path fill-rule="evenodd" clip-rule="evenodd" d="M9.1767 24.0727L9.39332 24.2597L9.2604 23.8265C9.00439 23.4523 8.56623 22 8.40869 21.4634C8.15269 20.5821 7.96561 19.691 7.8573 18.7458C7.53729 15.851 8.16746 13.3057 9.76748 11.0903C10.0038 10.7653 10.25 10.4896 10.4863 10.1992C11.3478 9.13578 13.2925 7.71298 14.5873 7.00405C14.7645 6.90558 14.9811 6.82189 15.1091 6.68896C14.3608 6.72835 12.9725 7.26498 12.3571 7.55052C10.0136 8.63362 8.03453 10.5635 6.97605 13.1137C5.7748 15.9937 6.02588 19.2233 7.61606 21.9557C8.37423 23.2505 8.645 23.3194 9.1767 24.0727Z" fill="#E5097F"/>
</svg>
