<svg width="16" height="16" viewBox="0 0 16 16" fill="none" xmlns="http://www.w3.org/2000/svg">
<path fill-rule="evenodd" clip-rule="evenodd" d="M0 6.13438C0 9.5223 2.74645 12.2688 6.13438 12.2688C9.5223 12.2688 12.2688 9.5223 12.2688 6.13438C12.2688 2.74645 9.5223 0 6.13438 0C2.74645 0 0 2.74645 0 6.13438ZM6.13438 10.9888C8.81537 10.9888 10.9888 8.81537 10.9888 6.13438C10.9888 3.45338 8.81537 1.28 6.13438 1.28C3.45338 1.28 1.28 3.45338 1.28 6.13438C1.28 8.81537 3.45338 10.9888 6.13438 10.9888ZM10.9784 10.9762C11.2305 10.7241 11.6394 10.7241 11.8916 10.9762L15.173 14.2577C15.4252 14.5099 15.4252 14.9187 15.173 15.1709C14.9208 15.423 14.512 15.423 14.2598 15.1709L10.9784 11.8894C10.7262 11.6373 10.7262 11.2284 10.9784 10.9762Z" fill="white"/>
</svg>
