<svg width="24" height="20" viewBox="0 0 24 20" fill="none" xmlns="http://www.w3.org/2000/svg">
<path fill-rule="evenodd" clip-rule="evenodd" d="M23.6361 12.1049L20.459 2.01801C20.0115 0.547515 18.4475 -0.283633 16.977 0.163908C16.6279 0.272105 16.4262 0.640957 16.5344 0.990137C16.6426 1.33932 17.0115 1.54096 17.3607 1.43276C18.1328 1.19669 18.9492 1.6344 19.1852 2.40653V2.41145L21.4574 9.63604C20.7344 9.22784 19.9033 8.99669 19.018 8.99669C16.4705 8.99669 14.3656 10.9246 14.0803 13.3934H9.9C9.57541 10.9639 7.49016 9.08522 4.97213 9.08522C4.08197 9.08522 3.2459 9.32129 2.52295 9.72948L4.82459 2.41145V2.40653C5.06066 1.6344 5.87705 1.19669 6.64918 1.43276C6.99836 1.54096 7.37213 1.33932 7.47541 0.990137C7.58361 0.640957 7.38197 0.267187 7.03279 0.163908C5.56229 -0.283633 4.00328 0.547515 3.55082 2.01801L0.383607 12.1147C0.37377 12.1442 0.368852 12.1688 0.363934 12.1983C0.132787 12.7737 0 13.4033 0 14.0574C0 16.7967 2.23279 19.0295 4.97213 19.0295C7.49016 19.0295 9.57541 17.1508 9.9 14.7213H14.1049C14.4689 17.1065 16.5344 18.941 19.018 18.941C21.7574 18.941 23.9902 16.7082 23.9902 13.9688C23.9951 13.3098 23.8672 12.6803 23.6361 12.1049ZM4.97705 17.7016C2.96557 17.7016 1.33279 16.0688 1.33279 14.0574C1.33279 12.0459 2.96557 10.4131 4.97705 10.4131C6.98852 10.4131 8.62131 12.0459 8.62131 14.0574C8.62131 16.0688 6.98361 17.7016 4.97705 17.7016ZM15.3787 13.9688C15.3787 15.9803 17.0115 17.6131 19.023 17.6131C21.0344 17.6131 22.6672 15.9803 22.6672 13.9688C22.6672 11.9574 21.0295 10.3246 19.023 10.3246C17.0164 10.3246 15.3787 11.9574 15.3787 13.9688Z" fill="black"/>
</svg>
