<svg width="19" height="12" viewBox="0 0 19 12" fill="none" xmlns="http://www.w3.org/2000/svg">
<path d="M18.5352 1.39844C18.6758 0.882812 18.4648 0.625 17.9023 0.625H15.8281C15.4062 0.625 15.1133 0.824219 14.9492 1.22266L14.5977 1.92578C14.3164 2.53516 14.0234 3.09766 13.7188 3.61328C13.2734 4.33984 12.8281 4.94922 12.3828 5.44141C12.1484 5.69922 11.9609 5.875 11.8203 5.96875C11.6797 6.03906 11.5508 6.07422 11.4336 6.07422C11.3398 6.07422 11.2578 6.02734 11.1875 5.93359C11.1172 5.83984 11.082 5.6875 11.082 5.47656V1.39844C11.082 1.11719 11.0352 0.917969 10.9414 0.800781C10.8711 0.683594 10.7305 0.625 10.5195 0.625H7.25C7.10938 0.625 6.98047 0.671875 6.86328 0.765625C6.76953 0.859375 6.72266 0.976562 6.72266 1.11719C6.72266 1.23437 6.80469 1.39844 6.96875 1.60938C7.13281 1.79687 7.25 1.97266 7.32031 2.13672C7.46094 2.41797 7.54297 2.74609 7.56641 3.12109V6.17969C7.56641 6.48438 7.53125 6.69531 7.46094 6.8125C7.41406 6.90625 7.32031 6.95312 7.17969 6.95312C6.94531 6.95312 6.61719 6.69531 6.19531 6.17969C5.77344 5.66406 5.35156 4.99609 4.92969 4.17578C4.46094 3.28516 4.0625 2.37109 3.73438 1.43359C3.64062 1.12891 3.52344 0.917969 3.38281 0.800781C3.26562 0.683594 3.07812 0.625 2.82031 0.625H0.746094C0.277344 0.625 0.0429688 0.824219 0.0429688 1.22266C0.0429688 1.45703 0.125 1.86719 0.289062 2.45312C0.546875 3.17969 0.886719 3.96484 1.30859 4.80859C1.84766 5.91016 2.51562 7 3.3125 8.07812C4.15625 9.29688 5.14062 10.2344 6.26562 10.8906C7.39062 11.5469 8.50391 11.875 9.60547 11.875C10.2383 11.875 10.6602 11.8047 10.8711 11.6641C11.0352 11.5469 11.1055 11.3477 11.082 11.0664V10.1523C11.082 9.58984 11.0938 9.22656 11.1172 9.0625C11.1172 8.82812 11.1523 8.67578 11.2227 8.60547C11.3164 8.53516 11.457 8.5 11.6445 8.5C12.0898 8.5 12.7812 8.94531 13.7188 9.83594C14 10.1172 14.3164 10.4688 14.668 10.8906C15.043 11.2891 15.3008 11.5352 15.4414 11.6289C15.6523 11.793 15.8867 11.875 16.1445 11.875H18.2188C18.5 11.875 18.6992 11.8047 18.8164 11.6641C18.957 11.5 18.9922 11.2773 18.9219 10.9961C18.7109 10.3398 17.7617 9.14453 16.0742 7.41016L15.7578 7.05859C15.6172 6.89453 15.5469 6.75391 15.5469 6.63672C15.5469 6.51953 15.6172 6.35547 15.7578 6.14453C15.7812 6.12109 16.0039 5.80469 16.4258 5.19531C16.918 4.42188 17.3398 3.74219 17.6914 3.15625C18.1836 2.33594 18.4648 1.75 18.5352 1.39844Z" fill="white"/>
</svg>
